<svg width="1200" height="630" version="1.1" viewBox="0 0 317.5 166.69" xmlns="http://www.w3.org/2000/svg">
 <rect y="1.5895e-7" width="317.5" height="166.69" fill="#31a8e0" stroke-width="1.0016"/>
 <rect x="42.812" y="24.379" width="231.88" height="117.93" rx="4.2334" ry="4.2334" fill="#f9f9f9" fill-opacity=".95787" stroke-linecap="round" stroke-linejoin="round" stroke-width="1.6094" style="paint-order:markers stroke fill"/>
 <g transform="matrix(1 0 0 1 48.358 57.344)">
  <g transform="matrix(.20888 0 0 .20888 15.939 15.954)" fill-rule="evenodd">
   <path d="m48.75 95.97-25.91-25.74 14.32-14.57 40.39 40.31z" fill="#02539a"/>
   <g fill="#45d1fd">
    <path d="m22.52 70.25 25.68-25.68h28.87l-39.95 39.95z" fill-opacity=".85"/>
    <path d="m0.29 47.85 14.58 14.57 62.2-62.2h-29.02z"/>
   </g>
  </g>
  <g fill="#02539a" stroke-width=".26458" aria-label="Flutter channels">
   <path d="m57.466 20.646h-7.2637v4.0514h6.2411v1.6977h-6.2411v6.9164h-1.91v-14.363h9.1736z"/>
   <path d="m61.324 33.312h-1.8135v-15.01h1.8135z"/>
   <path d="m73.865 33.312h-1.8135v-1.1961q-0.9164 0.72347-1.7556 1.1093-0.83923 0.38585-1.8521 0.38585-1.6977 0-2.6431-1.0322-0.94534-1.0418-0.94534-3.0482v-6.9936h1.8135v6.135q0 0.81993 0.07717 1.4084 0.07717 0.57878 0.32797 0.99357 0.26045 0.42444 0.67524 0.61736 0.41479 0.19293 1.2058 0.19293 0.70418 0 1.5338-0.36656 0.83923-0.36656 1.5627-0.93569v-8.045h1.8135z"/>
   <path d="m83.029 33.215q-0.51125 0.13505-1.119 0.22186-0.59807 0.08682-1.0707 0.08682-1.6495 0-2.508-0.88746-0.85852-0.88746-0.85852-2.8457v-5.7299h-1.2251v-1.5241h1.2251v-3.0965h1.8135v3.0965h3.7428v1.5241h-3.7428v4.91q0 0.84887 0.03858 1.3312 0.03859 0.47267 0.2701 0.88746 0.21222 0.38585 0.57878 0.56913 0.37621 0.17363 1.1383 0.17363 0.44373 0 0.92604-0.1254 0.48232-0.13505 0.69453-0.22186h0.09646z"/>
   <path d="m90.823 33.215q-0.51125 0.13505-1.119 0.22186-0.59807 0.08682-1.0707 0.08682-1.6495 0-2.508-0.88746-0.85852-0.88746-0.85852-2.8457v-5.7299h-1.2251v-1.5241h1.2251v-3.0965h1.8135v3.0965h3.7428v1.5241h-3.7428v4.91q0 0.84887 0.03858 1.3312 0.03859 0.47267 0.2701 0.88746 0.21222 0.38585 0.57878 0.56913 0.3762 0.17363 1.1383 0.17363 0.44373 0 0.92604-0.1254 0.48231-0.13505 0.69453-0.22186h0.09646z"/>
   <path d="m102.04 28.113h-7.9389q0 0.99357 0.29904 1.7363 0.29904 0.73312 0.81994 1.2058 0.50161 0.46302 1.1865 0.69453 0.69453 0.23151 1.5241 0.23151 1.0997 0 2.209-0.43408 1.119-0.44373 1.5916-0.86817h0.0965v1.9775q-0.91639 0.38585-1.8714 0.6463-0.95498 0.26045-2.0064 0.26045-2.6817 0-4.1865-1.4469-1.5048-1.4566-1.5048-4.1286 0-2.6431 1.4373-4.1961 1.4469-1.5531 3.8006-1.5531 2.1801 0 3.3569 1.2733 1.1865 1.2733 1.1865 3.6174zm-1.7653-1.3891q-0.01-1.4276-0.72347-2.209-0.70418-0.78135-2.1511-0.78135-1.4566 0-2.3248 0.85852-0.85852 0.85852-0.97428 2.1318z"/>
   <path d="m111.51 24.514h-0.0965q-0.40515-0.09646-0.791-0.13505-0.3762-0.04823-0.8971-0.04823-0.83923 0-1.6206 0.3762-0.78135 0.36656-1.5048 0.95498v7.6495h-1.8135v-10.775h1.8135v1.5916q1.0804-0.86817 1.9003-1.2251 0.82958-0.36656 1.6881-0.36656 0.47267 0 0.68488 0.02894 0.21222 0.01929 0.63666 0.08682z"/>
   <path d="m128.15 32.637q-0.90675 0.43408-1.7267 0.67524-0.81029 0.24116-1.7267 0.24116-1.1672 0-2.1415-0.33762-0.97427-0.34727-1.6688-1.0418-0.70418-0.69453-1.09-1.7556-0.38586-1.0611-0.38586-2.4791 0-2.6431 1.447-4.1479 1.4566-1.5048 3.8392-1.5048 0.92604 0 1.8135 0.26045 0.89711 0.26045 1.6399 0.63666v2.0161h-0.0965q-0.82958-0.6463-1.717-0.99357-0.87781-0.34727-1.717-0.34727-1.5434 0-2.4405 1.0418-0.88746 1.0322-0.88746 3.0386 0 1.9486 0.86817 3 0.87781 1.0418 2.4598 1.0418 0.54984 0 1.119-0.14469 0.56913-0.1447 1.0225-0.37621 0.39549-0.20257 0.74276-0.42444 0.34727-0.23151 0.54984-0.3955h0.0965z"/>
   <path d="m139.5 33.312h-1.8135v-6.135q0-0.74276-0.0868-1.3891-0.0868-0.65595-0.31833-1.0225-0.24115-0.40514-0.69453-0.59807-0.45337-0.20257-1.1768-0.20257-0.74276 0-1.553 0.36656t-1.553 0.93569v8.045h-1.8135v-15.01h1.8135v5.4309q0.84887-0.70418 1.7556-1.0997 0.90676-0.3955 1.8617-0.3955 1.746 0 2.6624 1.0514 0.9164 1.0514 0.9164 3.0289z"/>
   <path d="m151.36 33.312h-1.8039v-1.1479q-0.24115 0.16399-0.65594 0.46302-0.40515 0.28939-0.791 0.46302-0.45337 0.22186-1.0418 0.36656-0.58842 0.15434-1.3794 0.15434-1.4566 0-2.4694-0.96463t-1.0129-2.4598q0-1.2251 0.5209-1.9775 0.53055-0.76206 1.5048-1.1961 0.98392-0.43408 2.3633-0.58842 1.3794-0.15434 2.9614-0.23151v-0.27974q0-0.61736-0.22186-1.0225-0.21222-0.40514-0.61736-0.63666-0.38585-0.22186-0.92605-0.29904-0.54019-0.07717-1.1286-0.07717-0.71383 0-1.5916 0.19293-0.87781 0.18328-1.8135 0.54019h-0.0965v-1.8424q0.53054-0.14469 1.5338-0.31833 1.0032-0.17363 1.9775-0.17363 1.1383 0 1.9775 0.19293 0.84888 0.18328 1.4662 0.63666 0.60772 0.44373 0.92604 1.1479 0.31833 0.70418 0.31833 1.746zm-1.8039-2.6527v-3q-0.82958 0.04823-1.9582 0.1447-1.119 0.09646-1.7749 0.27974-0.78135 0.22186-1.2637 0.69453-0.48232 0.46302-0.48232 1.283 0 0.92604 0.55949 1.3987 0.55948 0.46302 1.7074 0.46302 0.95498 0 1.746-0.36656 0.79099-0.3762 1.4662-0.8971z"/>
   <path d="m163.88 33.312h-1.8135v-6.135q0-0.74276-0.0868-1.3891-0.0868-0.65595-0.31833-1.0225-0.24115-0.40514-0.69453-0.59807-0.45337-0.20257-1.1768-0.20257-0.74276 0-1.553 0.36656t-1.553 0.93569v8.045h-1.8135v-10.775h1.8135v1.1961q0.84887-0.70418 1.7556-1.0997t1.8617-0.3955q1.746 0 2.6624 1.0514 0.9164 1.0514 0.9164 3.0289z"/>
   <path d="m176.39 33.312h-1.8135v-6.135q0-0.74276-0.0868-1.3891-0.0868-0.65595-0.31833-1.0225-0.24116-0.40514-0.69453-0.59807-0.45338-0.20257-1.1768-0.20257-0.74277 0-1.553 0.36656-0.81029 0.36656-1.5531 0.93569v8.045h-1.8135v-10.775h1.8135v1.1961q0.84888-0.70418 1.7556-1.0997t1.8617-0.3955q1.746 0 2.6624 1.0514 0.91639 1.0514 0.91639 3.0289z"/>
   <path d="m188.9 28.113h-7.9389q0 0.99357 0.29904 1.7363 0.29903 0.73312 0.81993 1.2058 0.50161 0.46302 1.1865 0.69453 0.69454 0.23151 1.5241 0.23151 1.0997 0 2.209-0.43408 1.119-0.44373 1.5916-0.86817h0.0965v1.9775q-0.9164 0.38585-1.8714 0.6463-0.95498 0.26045-2.0064 0.26045-2.6817 0-4.1865-1.4469-1.5048-1.4566-1.5048-4.1286 0-2.6431 1.4373-4.1961 1.4469-1.5531 3.8006-1.5531 2.1801 0 3.3569 1.2733 1.1865 1.2733 1.1865 3.6174zm-1.7653-1.3891q-0.01-1.4276-0.72347-2.209-0.70418-0.78135-2.1511-0.78135-1.4566 0-2.3248 0.85852-0.85852 0.85852-0.97428 2.1318z"/>
   <path d="m193.48 33.312h-1.8135v-15.01h1.8135z"/>
   <path d="m204.78 30.206q0 1.4759-1.2251 2.4212-1.2154 0.94534-3.328 0.94534-1.1961 0-2.1994-0.27974-0.99357-0.28939-1.6688-0.62701v-2.0354h0.0965q0.85852 0.6463 1.91 1.0322 1.0514 0.37621 2.0161 0.37621 1.1961 0 1.8714-0.38585 0.67524-0.38585 0.67524-1.2154 0-0.63666-0.36656-0.96463-0.36655-0.32797-1.4084-0.55948-0.38586-0.08682-1.0129-0.20257-0.61737-0.11576-1.1286-0.2508-1.418-0.3762-2.0161-1.0997-0.58843-0.73312-0.58843-1.7942 0-0.66559 0.2701-1.254 0.27974-0.58842 0.83922-1.0514 0.5402-0.45338 1.3698-0.71383 0.83923-0.2701 1.8714-0.2701 0.96463 0 1.9486 0.24116 0.99357 0.23151 1.6495 0.56913v1.9389h-0.0965q-0.69453-0.51125-1.6881-0.85852-0.99357-0.35691-1.9486-0.35691-0.99357 0-1.6784 0.38585-0.68489 0.3762-0.68489 1.1286 0 0.66559 0.41479 1.0032 0.40514 0.33762 1.3119 0.54984 0.50161 0.11576 1.119 0.23151 0.62701 0.11576 1.0418 0.21222 1.2637 0.28939 1.9486 0.99357 0.68489 0.71382 0.68489 1.8907z"/>
  </g>
 </g>
</svg>
